{
  "accessors": [
    {
      "bufferView": 2,
      "componentType": 5126,
      "count": 3263,
      "max": [
        110.13615417480469,
        47.5,
        77.400001525878906
      ],
      "min": [
        -110.13615417480469,
        -47.5,
        0
      ],
      "type": "VEC3"
    },
    {
      "bufferView": 2,
      "byteOffset": 39156,
      "componentType": 5126,
      "count": 3263,
      "max": [
        1,
        1,
        1
      ],
      "min": [
        -1,
        -1,
        -1
      ],
      "type": "VEC3"
    },
    {
      "bufferView": 3,
      "componentType": 5126,
      "count": 3263,
      "max": [
        1,
        1,
        1,
        1
      ],
      "min": [
        -1,
        -1,
        -1,
        -1
      ],
      "type": "VEC4"
    },
    {
      "bufferView": 1,
      "componentType": 5126,
      "count": 3263,
      "max": [
        0.99710297584533691,
        0.99464499950408936
      ],
      "min": [
        0.0028939999174326658,
        0.0028939999174326658
      ],
      "type": "VEC2"
    },
    {
      "bufferView": 0,
      "componentType": 5125,
      "count": 6900,
      "max": [
        3262
      ],
      "min": [
        0
      ],
      "type": "SCALAR"
    },
    {
      "bufferView": 2,
      "byteOffset": 78312,
      "componentType": 5126,
      "count": 3986,
      "max": [
        98.215431213378906,
        35.724449157714844,
        74.403617858886719
      ],
      "min": [
        -98.215431213378906,
        -35.724449157714844,
        67.401718139648438
      ],
      "type": "VEC3"
    },
    {
      "bufferView": 2,
      "byteOffset": 126144,
      "componentType": 5126,
      "count": 3986,
      "max": [
        0.94688701629638672,
        0.94687438011169434,
        0.99969476461410522
      ],
      "min": [
        -0.94688701629638672,
        -0.94687438011169434,
        -0.9997597336769104
      ],
      "type": "VEC3"
    },
    {
      "bufferView": 1,
      "byteOffset": 26104,
      "componentType": 5126,
      "count": 3986,
      "max": [
        0.61793899536132812,
        0.99988400936126709
      ],
      "min": [
        0.00011600000289035961,
        0.00011600000289035961
      ],
      "type": "VEC2"
    },
    {
      "bufferView": 0,
      "byteOffset": 27600,
      "componentType": 5125,
      "count": 11208,
      "max": [
        3985
      ],
      "min": [
        0
      ],
      "type": "SCALAR"
    }
  ],
  "asset": {
    "extras": {
      "author": "Interiors3D (https://sketchfab.com/Interiors3D)",
      "license": "CC-BY-4.0 (http://creativecommons.org/licenses/by/4.0/)",
      "source": "https://sketchfab.com/3d-models/a39200-16d304beee494f9e9c6d9d897fd4683a",
      "title": "A39200"
    },
    "generator": "Sketchfab-8.48.0",
    "version": "2.0"
  },
  "bufferViews": [
    {
      "buffer": 0,
      "byteLength": 72432,
      "byteOffset": 0,
      "name": "floatBufferViews",
      "target": 34963
    },
    {
      "buffer": 0,
      "byteLength": 57992,
      "byteOffset": 72432,
      "byteStride": 8,
      "name": "floatBufferViews",
      "target": 34962
    },
    {
      "buffer": 0,
      "byteLength": 173976,
      "byteOffset": 130424,
      "byteStride": 12,
      "name": "floatBufferViews",
      "target": 34962
    },
    {
      "buffer": 0,
      "byteLength": 52208,
      "byteOffset": 304400,
      "byteStride": 16,
      "name": "floatBufferViews",
      "target": 34962
    }
  ],
  "buffers": [
    {
      "byteLength": 356608,
      "uri": "scene.bin"
    }
  ],
  "images": [
    {
      "uri": "textures/Bruges.black_baseColor.jpeg"
    },
    {
      "uri": "textures/Bruges.black_metallicRoughness.png"
    },
    {
      "uri": "textures/Bruges.black_normal.png"
    }
  ],
  "materials": [
    {
      "doubleSided": true,
      "name": "Bruges.black",
      "normalTexture": {
        "index": 2,
        "scale": 0.59999999999999998,
        "texCoord": 0
      },
      "pbrMetallicRoughness": {
        "baseColorFactor": [
          1,
          1,
          1,
          1
        ],
        "baseColorTexture": {
          "index": 0,
          "texCoord": 0
        },
        "metallicFactor": 0,
        "metallicRoughnessTexture": {
          "index": 1,
          "texCoord": 0
        },
        "roughnessFactor": 1
      }
    },
    {
      "doubleSided": true,
      "name": "Metal",
      "pbrMetallicRoughness": {
        "baseColorFactor": [
          0.113772,
          0.069434999999999969,
          0.019511999999999998,
          1
        ],
        "metallicFactor": 1,
        "roughnessFactor": 0.29999999999999999
      }
    }
  ],
  "meshes": [
    {
      "primitives": [
        {
          "attributes": {
            "NORMAL": 1,
            "POSITION": 0,
            "TANGENT": 2,
            "TEXCOORD_0": 3
          },
          "indices": 4,
          "material": 0,
          "mode": 4
        }
      ]
    },
    {
      "primitives": [
        {
          "attributes": {
            "NORMAL": 6,
            "POSITION": 5,
            "TEXCOORD_0": 7
          },
          "indices": 8,
          "material": 1,
          "mode": 4
        }
      ]
    }
  ],
  "nodes": [
    {
      "children": [
        1
      ],
      "name": "RootNode (gltf orientation matrix)",
      "rotation": [
        -0.70710678118654746,
        -0,
        -0,
        0.70710678118654757
      ]
    },
    {
      "children": [
        2
      ],
      "name": "RootNode (model correction matrix)"
    },
    {
      "children": [
        3,
        4
      ],
      "name": "W11 - A39200 - Sketchfab - mesh - black.obj.cleaner.materialmerger.gles"
    },
    {
      "mesh": 0,
      "name": ""
    },
    {
      "mesh": 1,
      "name": ""
    }
  ],
  "samplers": [
    {
      "magFilter": 9729,
      "minFilter": 9987,
      "wrapS": 10497,
      "wrapT": 10497
    }
  ],
  "scene": 0,
  "scenes": [
    {
      "name": "OSG_Scene",
      "nodes": [
        0
      ]
    }
  ],
  "textures": [
    {
      "sampler": 0,
      "source": 0
    },
    {
      "sampler": 0,
      "source": 1
    },
    {
      "sampler": 0,
      "source": 2
    }
  ]
}

